<svg id="Layer_1" data-name="Layer 1" xmlns="http://www.w3.org/2000/svg" viewBox="0 0 511.35 511.35"><defs><style>.cls-1{fill:#fff;}</style></defs><path class="cls-1" d="M486.19,138.16c0-.47,0-.94,0-1.42,0-18.65-18.8-35.69-53-48-32.41-11.67-75.39-18.09-121-18.09s-88.62,6.42-121,18.09c-34.15,12.29-52.95,29.33-52.95,48,0,.8,0,1.58.11,2.37,0,.08,0,.15,0,.23,0,39.61,10.72,77.28,31.07,109.49a13.42,13.42,0,0,0-8.25,5.37c-3.14,4.58-2.83,10.37-1.51,16.42l-6.13.7c-4.46-9.33-10.41-17.92-20.76-15.57-6.86,1.56-8.37-1.22-10.85-7.14-1.53-3.64-3.84-9.11-9.8-8.8-15.45.89-39,23.09-43,29-.55.81-2.21,3.26-1.24,6.14,3.33,10,9.57,13.53,14.13,16.12a36.46,36.46,0,0,1,3.38,2.08l-.55.11c-4.94.88-11.07,0-17-.8-9-1.26-17.42-2.44-23.35,2.07-3,2.31-4.87,5.76-5.45,10.23-.77,5.88-3.52,9.72-5.94,13.1a40.26,40.26,0,0,0-2.35,3.54l-.82-.62c-5,6.58-7.49,13.5-7.49,20.56a30.19,30.19,0,0,0,.31,4.26h-.31c0,28.09,21.51,54.18,60.56,73.47,37.85,18.68,88,29,141.34,29s103.49-10.3,141.33-29c39.06-19.29,60.57-45.38,60.57-73.47H426a28.89,28.89,0,0,0,.33-4.26c0-12.46-8-24.5-23.12-35l.06-.73c.07-.9.14-1.83.21-2.76,24.67-16.75,45.33-40.19,59.79-67.89a207.31,207.31,0,0,0,23.1-95.63A5.69,5.69,0,0,0,486.19,138.16ZM194.87,98.92c31.27-11.25,73-17.45,117.38-17.45s86.11,6.2,117.38,17.45c29.11,10.48,45.8,24.26,45.8,37.82,0,8.34-6.32,16.76-17.95,24.45a20.57,20.57,0,0,0,1.8-8.39c0-20.6-32.19-37.6-86.22-45.63a76.85,76.85,0,0,0-12.31-12c-7.51-5.59-14.1-7.37-19.57-5.28-4.88,1.87-13.15,7-20.11,13-3.41-.07-6.9-.11-10.37-.11-72,0-148.59,17.53-148.59,50a20.23,20.23,0,0,0,.75,5.44c-9-6.87-13.79-14.21-13.79-21.5C149.07,123.18,165.76,109.4,194.87,98.92ZM312.25,192c-34.77,0-67.85-3.8-95.59-10.84-2-.55-3.89-1.11-5.77-1.7-24-7.5-38.31-17.47-38.31-26.68s14.32-19.18,38.31-26.68c26.59-8.3,62-12.88,99.81-12.88h.68a18.75,18.75,0,0,0-1.92,3.66,9.62,9.62,0,0,0,.28,8.2h0c1.1,2,3.65,6.75,30.49,9.53,6.67.69,14.42,1.15,21.32,1.15a72.86,72.86,0,0,0,13.94-1c4.93-1,7.56-3.36,7.83-6.87.18-2.51-.7-5.56-2.28-8.81,46.45,8.29,67.77,22.91,67.77,33.72,0,9.21-14.32,19.18-38.31,26.68a266.85,266.85,0,0,1-42.88,9.16A443.31,443.31,0,0,1,312.25,192Zm59.48-67.54c-4.37.59-13.3.84-25.48-.14-13.79-1.1-22.91-3.09-26.36-4.49C322.53,114.7,337,103.08,345,100c1-.39,3.67.08,7.65,2.72C361.23,108.4,369.22,119,371.73,124.48ZM164,290.8a3,3,0,0,1-.51.11c-1.49-.85-3.65-5.27-5.41-9.24l4.37-.49C163.5,284.88,164.57,289.29,164,290.8ZM41.92,324.14c2.69-3.75,6.75-9.42,7.87-18,.3-2.29,1-2.86,1.29-3,2.34-1.79,9.23-.83,15.31,0,6.44.9,13.75,1.92,20.38.74,4.28-.76,8.9-2.09,10.77-6.17a8.08,8.08,0,0,0-.61-7.71c-2.57-4.36-6.27-6.47-9.54-8.33-3.51-2-6.38-3.63-8.4-8,4.67-5.52,22.15-20.74,32.13-22.84.28.61.59,1.35.85,2,2.33,5.56,7.19,17.12,23.2,13.5,4.15-.94,8.25,8.57,11.53,16.22,4.28,9.95,8.71,20.24,17.88,19.16a11.15,11.15,0,0,0,8.4-4.76c3.67-5.5,1.48-13.17-.83-21.28-1.47-5.15-3.69-12.94-2.06-15.31.6-.89,2.46-1.18,3.51-1.27,6.39-.58,10.9.37,13.4,2.83,4.05,4,3.41,12.5,2.94,18.71a37.66,37.66,0,0,0-.1,7.89c1.25,8.12,13.61,16.06,19.92,19.09.48.49,1.83,3.1-1.16,15.84-10.4,1-22.34,5.38-27.41,14.21a31.94,31.94,0,0,0-2.46,5.64c-2.8-4.86-6.6-8.8-12-10.31a24.17,24.17,0,0,0-.39-6.32c-2.13-10.78-14.67-27.56-29.49-29.34-8.12-1-27.87,4.34-34.44,15.59s-2.42,20.64,3.19,27.7a37.21,37.21,0,0,0-12.07,6.74c-2.55,1.94-4.64,3.53-7.52,4.41-2-7.9-14-15.18-21.31-19-4.44-2.31-8.79-1.05-12-.13-4.68,1.36-7.53,2.19-12.91-5.32A31.18,31.18,0,0,1,41.92,324.14Zm168.39-45.39c-.33,5.31-.71,10.37-3.3,14.6-3.63-2.66-6.15-5.29-6.49-6.52a35.71,35.71,0,0,1,.19-5.43c.06-.76.12-1.58.17-2.41Zm59.49-5.57a9.46,9.46,0,0,0,.63-9.57c-2.94-6.46-3.29-10.5-3-11.87,3.81-1.53,18.25-2.36,27.84,3,4,2.25,7.38,4.28,10,5.9,4.35,2.66,7.52,4.59,10.47,5.4a26,26,0,0,1-6,13c-5.54,6.25-3.32,11.71-2.1,13.77a16,16,0,0,0,7.39,6.11c-2.95,2.88-5,6.44-5,10.77a26.8,26.8,0,0,0,.63,5.34c.66,3.4,1,5.27-3.14,10.09-2.22,2.56-3.65,2.26-4.11,2.16-2.2-.46-5.38-3.71-7-8.83-2.06-6.69-6.57-11.1-12.7-12.42-7.36-1.59-15.57,1.77-19.26,5.94-7.15,8.08-5,16.38-3.25,23a36,36,0,0,1,1.54,8.8c0,2.8-1.2,3.89-9.2,5.72-1.62.37-3.42.79-5.19,1.38a41.37,41.37,0,0,0-3.75-9.21c-2.86-5.14-11.72-15.24-25.13-17.82,1.69-7.5,3.78-19.66-3.32-24.9,4-6.59,4.47-13.86,4.84-19.93.57-9.08,1.23-12.42,6.52-14.25,6-2.09,10.64,0,11.24.92a13.72,13.72,0,0,1,.33,2.7c.19,3,.7,11,9.08,11.49C248.94,279.9,264.56,280.78,269.8,273.18Zm125.28,55c1.92,4,5.86,13.69,1.18,16.83-5,3.34-9.6,3.81-14.47,4.29-5.42.55-11.39,1.15-16.42,6.09a27.89,27.89,0,0,0-12.93-3h-.07c-15.79,0-27.78,6.9-34.67,19.87-2.58,4.85-2.61,15.89-.17,23.63a486.84,486.84,0,0,1-72.64,7.83,7.73,7.73,0,0,0,.51-2.73c0-6.86-4.64-11.8-8.21-14.58,8.63-7.32,12.2-16,12.57-24.42,1-.75,4.29-1.51,6.32-2,6.58-1.51,17.59-4,17.59-16.25a45,45,0,0,0-1.9-11.52c-1.65-6.35-2.3-9.56.89-13.17a11,11,0,0,1,8.89-2.54c1.43.3,3.46,1.16,4.65,5,2.61,8.48,8.52,14.85,15.05,16.23,3,.64,8.95.76,14.5-5.66,7-8.11,6.66-13.72,5.59-19.22a17.27,17.27,0,0,1-.44-3.28c0-3.22,7.46-7.35,13.83-9.49,11-3,14.72-8.37,15.12-20.81.11-3.32.72-4.67,1-5.09a8.31,8.31,0,0,1,3.1,1.17,35.82,35.82,0,0,1,5.58,4c3.1,2.52,6.64,5.39,12.05,5.18a36.39,36.39,0,0,0,5.85-.89c5.64-1.15,10.1-1.82,11.92.79,4.24,6.08,3.73,12.69,3.13,20.33C391.89,312,391.25,320.13,395.08,328.17Zm-67,65.55c-1.58-3.89-2.25-13.7-.88-16.4,5-9.35,13.43-14.1,25.16-14.12h0c10.53,0,15.76,7.69,20,17.14q-4.61,1.89-9.64,3.67A292.84,292.84,0,0,1,328.12,393.72ZM156,422.29c-2.88-1.83-6.87-8-10.09-13-5.73-8.85-10.72-16.46-17.55-16.15-3.75.19-8.49-.39-9.77-4.24-3-8.91-13.21-8.57-21.43-8.28-1.57,0-3.2.1-4.73.1-6.82,0-9.22-1.53-12.83-8.2a8.7,8.7,0,0,1-.59-7.48,3.52,3.52,0,0,1,1.36-1.78c10,0,15.16-3.92,19.7-7.38,4.16-3.16,7.78-5.9,16.09-6.15,7.17,3.5,16.84,4.66,24.71,4.66a47.48,47.48,0,0,0,12.25-1.26c4.12-1.28,8-4.92,10.61-9.75,5.63,1.71,8.37,10.14,11.43,21.48.82,3.05,1.59,5.93,2.49,8.54,4.09,11.95,18.5,13.84,31.22,15.5,7.16.93,14.56,1.9,19.3,4.42,1.91,1,5.69,3.89,6.32,6.81-1.62,1.45-7.29,4.58-17.79,7.24-10.85,2.75-18.53,2.84-20.52,2-11.08-4.52-17.68,3.48-22.05,8.77C168.52,425,165.7,428.44,156,422.29Zm-44.26-104c3.75-6.42,17.3-10.36,22.84-10.36a7.52,7.52,0,0,1,1,0c8.94,1.07,18.75,13.47,20.17,20.7,1.32,6.71-3.05,13.27-5.83,14.14-4.95,1.53-26,1.24-32.12-4.87C108.62,328.79,108.75,323.48,111.75,318.33Zm105,15.94c10.27,1.6,17,9.86,18.52,12.63,2.77,5,10.06,21.82-9,34.2a112.47,112.47,0,0,0-16-2.88c-7.12-.93-14.39-1.89-18.73-4.35-8.54-11.87-2.9-27.54-1-30.87C194.29,336.49,208,332.91,216.76,334.27Zm102.41-45.42c2.32.33,4.57.61,6.77.88l3.89.5A18.39,18.39,0,0,1,319.17,288.85ZM55.76,343c1.65-.48,3.36-1,4-.66,7.68,4,14.15,9.08,15.58,11.5a13.62,13.62,0,0,0-5.23,5.09,19.18,19.18,0,0,0,0,18.81v0c-23.37-10.6-36.83-23.37-36.83-36.4a19.55,19.55,0,0,1,.52-4.33C42.62,346.78,50.72,344.44,55.76,343Zm-12.31,31.9c18.47,13.59,48.52,24.74,87.66,32,1.92,2.47,4.17,5.93,5.75,8.37,3.45,5.32,7,10.79,10.87,14.27-22.1-4.7-42.41-11.47-59.9-20.11C67.55,399.36,52.54,387.59,43.45,374.87Zm317.48,34.5c-36.38,18-84.88,27.86-136.55,27.86a385.36,385.36,0,0,1-51.28-3.36c4.05-2.35,7.05-6,9.37-8.79,5-6.09,6.47-6.94,9.63-5.64,7.59,3.09,24.67-.09,36.9-4.56,52-.41,100.72-7.75,137.35-20.68,16.22-5.73,29.36-12.36,39.17-19.63C396.45,387.4,381.37,399.28,360.93,409.37Zm54.54-68c0,12-11.86,24.19-33.19,34.6A52.92,52.92,0,0,0,374,362.25c2.21-1.54,4.93-1.81,8.87-2.21,5.42-.54,12.17-1.22,19.41-6.07,4.83-3.24,11.59-11.5,2.56-30.45a18.13,18.13,0,0,1-1.15-3.1C410.14,326.11,415.47,333.25,415.47,341.33ZM403,289.91a29.12,29.12,0,0,0-4.83-11.64c-6-8.64-16.61-6.48-22.94-5.19a33.4,33.4,0,0,1-4.1.68c-1.28.05-2.21-.64-4.82-2.77a46.69,46.69,0,0,0-7.2-5.05c-5.29-2.91-9.89-3.3-13.66-1.16-4,2.29-6.17,7.07-6.4,14.2,0,.61-.05,1.17-.08,1.7-3.88-.69-7.73-1.17-11.71-1.67l-4.26-.54c3.47-7,4.74-14.66,2.58-18.94a6.8,6.8,0,0,0-6.69-3.89c-1.11-.09-4.58-2.2-7.94-4.25-2.76-1.68-6.18-3.77-10.42-6.12-13.3-7.39-35.87-6.86-41.14-.94-5.1,5.74-2.42,15.59.89,23.09-1.82.92-6.25,1.75-10.2,1.7-.05-.48-.08-1-.11-1.44a18.12,18.12,0,0,0-1.27-6.48c-2.88-6.33-13.46-10.52-24.61-6.66-7.75,2.68-11,7.8-12.43,13.37-3.28.07-7.43.18-10.89.28-.6-5.06-2.26-10.12-6.2-14a21.63,21.63,0,0,0-12.48-5.74,190.27,190.27,0,0,1-31.73-86.79c9,8.72,22.75,16.57,40.85,23.08a290.21,290.21,0,0,0,52.48,13,427.47,427.47,0,0,0,67,5.16l4.65,0c44.48-.29,86.26-6.68,117.94-18.08,18.22-6.56,32.07-14.47,41-23.26C468.65,213.8,443,260.29,403,289.91Z"/><path class="cls-1" d="M312.87,161.47c-5.25,0-7.43-.06-11.75-.16l-2.16-.06a5.4,5.4,0,0,0-.27,10.8l2.16.06c4.27.1,6.63.16,12,.16a5.4,5.4,0,0,0,0-10.8Z"/><path class="cls-1" d="M423.83,151a5.39,5.39,0,0,0-7.51-1.37c-6.08,4.21-29.63,9.35-68.53,11.33a5.4,5.4,0,0,0,.27,10.8h.29c17.85-.91,60.81-4,74.12-13.24A5.39,5.39,0,0,0,423.83,151Z"/><path class="cls-1" d="M287.88,348.07c-7.34.82-17.59,4.94-22.32,13.85-2.63,5-4.23,13-.08,19.29a17.51,17.51,0,0,0,11.54,7.2,24.5,24.5,0,0,0,4.71.44,25.25,25.25,0,0,0,25.57-22.57c.69-5.34-.45-10.06-3.22-13.28C300.73,349.1,294.82,347.3,287.88,348.07Zm8.7,16.83a14.6,14.6,0,0,1-17.5,12.91,6.89,6.89,0,0,1-4.58-2.55c-1.38-2.09-.74-5.75.61-8.28,2.19-4.14,7.94-7.5,14-8.17a16.37,16.37,0,0,1,1.92-.11c2.55,0,4.28.63,4.88,1.33S296.9,362.47,296.58,364.9Z"/><path class="cls-1" d="M263.61,145.25c-10.85-5.81-26-8.49-33.19-9.16-7.6-.71-14.25,5.47-17.47,11.9s-3.11,12.81.46,16.78h0c3.54,3.94,11.46,5.91,20,5.91,8.34,0,17.24-1.89,23.16-5.71,10.19-6.42,11.25-10.74,11.15-13.44A7.34,7.34,0,0,0,263.61,145.25Zm-12.82,10.58-.13.08c-8.72,5.63-26.42,4.19-29.17,1.68-.25-.7,0-3.53,2.26-6.68,1.78-2.54,4.1-4.2,5.67-4.06A94,94,0,0,1,254.77,153,40.43,40.43,0,0,1,250.79,155.83Z"/></svg>