<svg className="svg" version="1.1" width="36" height="34" viewBox="0 0 36 34" xmlns="http://www.w3.org/2000/svg">
                <g>
                    <g>
                        <path d="m18.123 16.997c-0.66038 0-1.1958 0.53485-1.1958 1.1958v8.8331c0 0.66097 0.53543 1.1958 1.1958 1.1958s1.1958-0.53485 1.1958-1.1958v-8.8331c0-0.66092-0.53548-1.1958-1.1958-1.1958z" fill="#f2f2f2"></path>
                    </g>
                    <g>
                        <path d="m11.521 17.001c-0.65805 0.05548-1.1468 0.63353-1.0913 1.2922l0.74388 8.8331c0.05255 0.6236 0.57513 1.0954 1.1906 1.0954 0.03328 0 0.06715-0.00117 0.1016-0.00467 0.65805-0.05489 1.1468-0.63294 1.0913-1.2916l-0.74388-8.8331c-0.05545-0.65746-0.62418-1.1543-1.2922-1.0913z" fill="#f2f2f2"></path>
                    </g>
                    <g>
                        <path d="m24.539 17.001c-0.64578-0.04905-1.2355 0.43383-1.2916 1.0913l-0.74388 8.8331c-0.05605 0.65863 0.43325 1.2367 1.0907 1.2916 0.03387 0.00351 0.06773 0.00467 0.1016 0.00467 0.61542 0 1.1374-0.47178 1.19-1.0954l0.74388-8.8331c0.05608-0.65862-0.43313-1.2367-1.0907-1.2922z" fill="#f2f2f2"></path>
                    </g>
                    <g>
                        <path d="m29.752 28.751c-0.12595 1.257-1.1335 2.2061-2.3417 2.2061h-18.761c-1.0606 0-2.0968-1.0203-2.3446-2.2365l-1.7403-13.834h27.105zm-27.151-17.967h31.046l-0.00233 1.7141h-31.046zm31.312-2.388h-3.0251l-8.0513-7.4754c-0.48396-0.44892-1.2396-0.42036-1.6875 0.06238-0.44898 0.48332-0.421 1.2389 0.06181 1.6878l6.1663 5.7252h-18.509l6.1663-5.7252c0.4828-0.44892 0.51079-1.2045 0.06239-1.6878-0.45073-0.4839-1.2047-0.51189-1.688-0.06238l-8.0513 7.4754h-3.0245c-1.2105 0-2.123 0.95438-2.123 2.2196v2.051c0 1.2009 0.82602 2.1115 1.9448 2.2019l1.794 14.237c0.49446 2.4568 2.4711 4.2397 4.7003 4.2397h18.761c2.4408 0 4.4688-1.8726 4.7126-4.312l1.9596-14.164c1.1233-0.08638 1.953-0.99872 1.953-2.2028v-2.051c0-1.2652-0.91198-2.2196-2.1224-2.2196z" fill="#f2f2f2"></path>
                    </g>
                </g>
</svg>