<svg id="Layer_1" data-name="Layer 1" xmlns="http://www.w3.org/2000/svg" viewBox="0 0 511.35 511.35"><defs><style>.cls-1{fill:#fff;}</style></defs><path class="cls-1" d="M316.56,100.1a17,17,0,1,0-17-17A17,17,0,0,0,316.56,100.1Zm0-23.26a6.23,6.23,0,1,1-6.22,6.23A6.24,6.24,0,0,1,316.56,76.84Z"/><path class="cls-1" d="M374.06,99a13.15,13.15,0,1,0,13.15,13.15A13.17,13.17,0,0,0,374.06,99Zm0,15.5a2.35,2.35,0,1,1,2.35-2.35A2.36,2.36,0,0,1,374.06,114.45Z"/><path class="cls-1" d="M369.92,55.89a22,22,0,1,0-22-22A22,22,0,0,0,369.92,55.89Zm0-33.24A11.22,11.22,0,1,1,358.7,33.87,11.23,11.23,0,0,1,369.92,22.65Z"/><path class="cls-1" d="M454.46,225.44c-.67-13-5.12-20.37-8.7-26.33-3.14-5.22-5.41-9-5.23-15.67a14.41,14.41,0,0,0,.9-5c0-18.93-36.5-28.84-72.55-28.84s-72.56,9.91-72.56,28.84a14.52,14.52,0,0,0,.69,4.32c.15,9.76-2.27,13-5.32,17.18-3.57,4.86-8,10.89-8.34,25.65-1,47.88-3.79,175,.7,223.5,1.24,13.42,11.27,24.39,29,31.72,14.79,6.12,34.64,9.49,55.89,9.49,40.32,0,83.11-15.46,84.91-41.34C457.57,395.66,456.86,271.94,454.46,225.44ZM368.88,207.3c24.39,0,49-4.54,62.32-13.34a51.16,51.16,0,0,0,5.3,10.71c1.1,1.83,2.18,3.64,3.16,5.58-2.15,6.31-27,17.18-71,17.18-43.77,0-68.62-10.76-71-17.09a45.66,45.66,0,0,1,2.71-4c2.33-3.16,4.85-6.61,6.27-12.33C320.05,202.78,344.56,207.3,368.88,207.3ZM323.17,167c12.13-4.23,28.36-6.56,45.71-6.56s33.57,2.33,45.7,6.56c11.08,3.87,16.05,8.56,16.05,11.48s-5,7.61-16.05,11.48c-12.13,4.23-28.36,6.56-45.7,6.56s-33.58-2.33-45.71-6.56c-11.08-3.87-16-8.55-16-11.48S312.09,170.84,323.17,167ZM443.09,448.22c-1.17,16.67-35.81,31.29-74.14,31.29-34.31,0-72.14-9.83-74.14-31.41-4.43-47.83-1.69-174.56-.66-222.26,0-1.27.09-2.42.18-3.51,13.79,10.48,44.19,15.9,74.32,15.9,30.38,0,61-5.51,74.66-16.16.17,1.23.29,2.53.37,3.93C446.06,272.25,446.77,395.26,443.09,448.22Z"/><path class="cls-1" d="M420.42,257.29h-.11A5.4,5.4,0,0,0,415,262.8c1,48,2.29,113.72-.12,160.6a5.4,5.4,0,0,0,5.12,5.67h.28a5.41,5.41,0,0,0,5.39-5.13c2.43-47.26,1.1-113.21.13-161.37A5.41,5.41,0,0,0,420.42,257.29Z"/><path class="cls-1" d="M219.38,377.74c-1.13-6.1.75-15.06,3.14-26.41,3.37-16,8-37.88,7.61-67.31,0-2.16.39-67.68-.07-93.39,0-.3,0-.61,0-.93a9,9,0,0,0,.08-1.17H230c-.44-10.26-3.09-27.85-14.68-43.56-5.51-7.46-10.51-13.77-14.93-19.35-14.26-18-22.22-28.11-24.28-46.78a14.88,14.88,0,0,0,4-10v-29c0-11.73-13.57-18.46-37.23-18.46s-37.22,6.73-37.22,18.46v29A15,15,0,0,0,110,79.11c-2.12,18.53-10.23,28.78-24.27,46.51-4.41,5.58-9.41,11.9-14.92,19.35-11.59,15.71-14.24,33.3-14.68,43.56H56a7,7,0,0,0,0,.8c0,.44,0,.88,0,1.3-.45,25.71-.07,91.23-.06,93.39-.38,29.43,4.23,51.33,7.6,67.31,2.39,11.35,4.28,20.31,3.15,26.41a164.31,164.31,0,0,1-6.37,22.79C53.06,422.24,46.77,441,71.64,478.47c3.87,5.84,9.27,9.31,15.61,10a22.06,22.06,0,0,0,2.69.16c11.72,0,23.23-8.47,28-12.44,6.19,8.62,13.47,17.29,25.14,17.29,14.56,0,21.39-7.89,26.74-15.95,5.45,4.27,15.8,11.1,26.33,11.1a21.9,21.9,0,0,0,2.68-.16c6.35-.74,11.74-4.22,15.61-10C239.3,441,233,422.24,225.74,400.53A163,163,0,0,1,219.38,377.74ZM66.75,290.22c0-2,0-4,0-6.11V284c0-.61-.32-54.29,0-84a91.78,91.78,0,0,0,17.62,4.83c15.74,3,36.61,4.64,58.75,4.64s43-1.65,58.74-4.64A91.72,91.72,0,0,0,219.38,200c.27,29.74,0,83.39-.06,84v.1q0,3.08,0,6c-.36,1.22-5.08,5.51-21.6,9.27-14.8,3.38-34.21,5.23-54.65,5.23s-39.85-1.85-54.66-5.23c-16.57-3.77-21.27-8.08-21.6-9.2Zm52-250.4c.46-1.37,7.28-5.34,24.13-5.34s23.68,4,24.13,5.36v29c0,2-8.29,8-24.13,8s-24.13-5.92-24.13-8ZM79.45,151.39c5.4-7.31,10.34-13.56,14.7-19.07,13.53-17.07,22.44-28.35,25.74-46.57,6.21,2.64,14.11,4.15,23,4.15s17-1.55,23.27-4.25c3.35,18.38,12.54,30,25.74,46.67,4.36,5.51,9.31,11.76,14.71,19.07,9.55,13,12,27.53,12.52,36.56-4.34,3.88-30.15,10.7-76.08,10.7-46.11,0-71.95-6.88-76.14-10.74C67.45,178.87,69.91,164.31,79.45,151.39Zm126,321.11c-2.14,3.23-4.63,4.91-7.85,5.29-7.38.88-16.8-5.24-21.83-9.29,4.09-5.76,8.85-10.34,17.8-12.07a5.4,5.4,0,1,0-2.05-10.6c-16.3,3.15-23.11,13.89-28.59,22.51-5.3,8.36-9.13,14.39-19.84,14.39-7.38,0-12.46-7.23-18.35-15.59-7.41-10.52-15.79-22.45-31.46-21.8a5.4,5.4,0,1,0,.44,10.79c7.33-.31,12.23,3.94,17.89,11.32-4.58,3.93-15.07,11.3-23.1,10.34-3.21-.38-5.7-2.06-7.85-5.29-22-33.08-17-48-10.07-68.54a173.14,173.14,0,0,0,6.75-24.25c1.52-8.21-.56-18.09-3.2-30.61-2.46-11.67-5.6-26.6-6.85-45.33,17.74,8.94,52.55,11.69,75.8,11.69s58-2.74,75.73-11.66c-1.24,18.71-4.39,33.64-6.85,45.31-2.63,12.51-4.72,22.39-3.19,30.6A174.59,174.59,0,0,0,215.5,404C222.4,424.54,227.38,439.42,205.43,472.5Z"/><path class="cls-1" d="M196.85,279.61h0a5.41,5.41,0,0,0,5.4-5.37c.05-7.82.17-27.9.13-45.46a5.39,5.39,0,0,0-5.4-5.39h0a5.41,5.41,0,0,0-5.39,5.42c0,17.51-.08,37.55-.13,45.36A5.4,5.4,0,0,0,196.85,279.61Z"/><path class="cls-1" d="M342.33,183.78l24.13.14h0a5.41,5.41,0,0,0,0-10.81L342.39,173h0a5.4,5.4,0,0,0,0,10.8Z"/><path class="cls-1" d="M177.76,158.78c4.44,6.46,5.36,7.8,8.15,15.6A5.41,5.41,0,0,0,191,178a5.48,5.48,0,0,0,1.81-.32,5.39,5.39,0,0,0,3.27-6.9c-3.26-9.13-4.81-11.39-9.42-18.09l-.33-.48a5.4,5.4,0,1,0-8.9,6.11Z"/><path class="cls-1" d="M195.64,349.18c.7-2.64,1.42-5.37,2.14-8.35a5.4,5.4,0,1,0-10.5-2.54c-.69,2.87-1.4,5.54-2.08,8.13-4.6,17.42-7.93,30,3,60a5.39,5.39,0,0,0,5.08,3.55,5.38,5.38,0,0,0,5.07-7.25C188.58,375.91,191.24,365.85,195.64,349.18Z"/></svg>