 <svg style="vertical-align:middle;" width="25" height="25" viewBox="0 0 25 25" fill="none" xmlns="http://www.w3.org/2000/svg"><path d="M14.577 22.0001C13.397 22.0001 10.167 21.5871 6.312 17.6881C2.95 14.2881 1.712 11.7821 2.054 9.04612C2.14725 8.19764 2.48219 7.39379 3.019 6.73012L4.119 5.62112C4.37178 5.39517 4.69895 5.27026 5.038 5.27026C5.37704 5.27026 5.70421 5.39517 5.957 5.62112L9.131 8.72112C9.36448 8.9746 9.4946 9.30632 9.49571 9.65095C9.49682 9.99558 9.36885 10.3281 9.137 10.5831L7.747 11.9021C8.72613 13.7376 10.2209 15.2466 12.047 16.2431L13.336 14.9431C13.5845 14.7086 13.9133 14.578 14.255 14.578C14.5967 14.578 14.9255 14.7086 15.174 14.9431L18.246 18.0501C18.4795 18.3032 18.6091 18.6348 18.6091 18.9791C18.6091 19.3234 18.4795 19.6551 18.246 19.9081C18.146 20.0081 18.038 20.1291 17.926 20.2541C17.6771 20.5514 17.3998 20.8237 17.098 21.0671C16.4447 21.602 15.6444 21.9259 14.803 21.9961C14.738 21.9981 14.663 22.0001 14.577 22.0001ZM5.036 6.63312L3.979 7.70112C3.68528 8.12027 3.49071 8.60071 3.41 9.10612C3.41 9.12712 3.41 9.17112 3.405 9.19112C3.112 11.4631 4.232 13.6441 7.272 16.7171C11.11 20.5981 14.172 20.6471 14.747 20.6241C15.2693 20.5603 15.766 20.3615 16.188 20.0471C16.2183 20.0152 16.2518 19.9863 16.288 19.9611C16.516 19.7695 16.7265 19.558 16.917 19.3291C17.03 19.2041 17.14 19.0821 17.241 18.9781L14.253 15.9571L12.645 17.5781C12.5144 17.6991 12.3446 17.769 12.1666 17.7751C11.9887 17.7812 11.8145 17.7229 11.676 17.6111C11.6529 17.6013 11.6305 17.59 11.609 17.5771L11.54 17.5371C10.4646 16.9554 9.47876 16.2215 8.613 15.3581C7.75874 14.4802 7.03471 13.4844 6.463 12.4011L6.422 12.3281C6.40905 12.3059 6.39769 12.2829 6.388 12.2591C6.27964 12.1177 6.22158 11.9442 6.223 11.7661C6.22299 11.6726 6.24195 11.5801 6.27873 11.4942C6.31552 11.4082 6.36936 11.3307 6.437 11.2661L8.137 9.65912L5.036 6.63312Z" fill="white"></path><path d="M13.0184 11.1083V11.5754H11.1004V11.2059L12.1337 10.0849C12.2502 9.95754 12.3283 9.84713 12.3679 9.75372C12.41 9.65747 12.4311 9.56263 12.4311 9.46921C12.4311 9.3305 12.3902 9.22435 12.3084 9.15074C12.2267 9.07714 12.1065 9.04034 11.9479 9.04034C11.6827 9.04034 11.4795 9.14367 11.3383 9.35032L11 9.05308C11.1016 8.89738 11.2379 8.77707 11.4089 8.69214C11.5823 8.60439 11.7756 8.56051 11.9888 8.56051C12.2713 8.56051 12.4968 8.63694 12.6653 8.78981C12.8338 8.94268 12.918 9.15074 12.918 9.41401C12.918 9.57537 12.8883 9.72682 12.8288 9.86837C12.7694 10.0099 12.6554 10.1713 12.4868 10.3524L11.7917 11.1083H13.0184Z" fill="white"></path><path d="M15.6168 10.9002H15.1559V11.5754H14.6875V10.9002H13.2601V10.518L14.5425 8.60297H15.0592L13.8512 10.4331H14.7024V9.83439H15.1559V10.4331H15.6168V10.9002Z" fill="white"></path><path d="M17.2378 8H17.6541L16.4275 12H16.0112L17.2378 8Z" fill="white"></path><path d="M20 8.60297V8.9724L18.9889 11.5754H18.4723L19.4499 9.07006H18.4277V9.57537H17.9779V8.60297H20Z" fill="white"></path><path d="M19.5095 16C19.3627 16.0004 19.2197 15.9548 19.1012 15.8701C18.9827 15.7854 18.895 15.6659 18.8508 15.5289C18.8066 15.392 18.8083 15.2449 18.8556 15.109C18.9029 14.9731 18.9934 14.8555 19.1138 14.7734C19.801 14.305 20.3775 13.6977 20.8042 12.9927C21.2309 12.2876 21.498 11.5012 21.5873 10.6866C21.6766 9.87199 21.5862 9.0481 21.3221 8.2706C21.058 7.49309 20.6263 6.78007 20.0563 6.1797C19.4863 5.57933 18.7912 5.10559 18.0179 4.79048C17.2446 4.47536 16.4112 4.32622 15.574 4.35311C14.7367 4.38 13.9151 4.58231 13.1647 4.94637C12.4142 5.31043 11.7524 5.82775 11.2239 6.46341C11.1086 6.60211 10.9417 6.69033 10.7598 6.70866C10.578 6.72699 10.3962 6.67393 10.2544 6.56116C10.1126 6.44838 10.0224 6.28512 10.0036 6.1073C9.98489 5.92948 10.0391 5.75166 10.1545 5.61296C10.8072 4.82727 11.6247 4.18777 12.5519 3.73766C13.479 3.28755 14.4941 3.03731 15.5286 3.00386C16.5631 2.97041 17.5929 3.15453 18.5484 3.54377C19.5039 3.93301 20.3629 4.51831 21.0672 5.26011C21.7716 6.00192 22.3049 6.88295 22.6312 7.84367C22.9575 8.80439 23.0692 9.82242 22.9586 10.829C22.8481 11.8355 22.5179 12.8071 21.9905 13.6782C21.463 14.5492 20.7505 15.2994 19.9012 15.8779C19.7864 15.9567 19.6497 15.9992 19.5095 16V16Z" fill="white"></path></svg>					