<svg id="Layer_1" data-name="Layer 1" xmlns="http://www.w3.org/2000/svg" viewBox="0 0 511.35 511.35"><defs><style>.cls-1{fill:#fff;}</style></defs><path class="cls-1" d="M240,226a34.23,34.23,0,0,0-.06,37.12c5.49,8.67,17.41,19.13,43.05,19.74.51,0,1,0,1.53,0,27.45,0,60-17.41,63.92-43.22,1.76-11.57-2.07-26.85-12.79-33.64-14.66-9.29-30.33-2.57-40.7,1.87a55.6,55.6,0,0,1-7.77,3,119.86,119.86,0,0,1-13.57,2C261,214.21,246.77,215.76,240,226Zm9,5.95c4-6,15-7.23,25.77-8.4a130.44,130.44,0,0,0,14.84-2.19,60.17,60.17,0,0,0,9.58-3.54c9.28-4,20.82-8.92,30.67-2.67,6.49,4.11,9.11,14.87,7.89,22.89-3,19.78-30.25,34-53.21,34h-1.31c-16.74-.41-28.24-5.36-34.17-14.73A23.72,23.72,0,0,1,249,232Z"/><path class="cls-1" d="M233.74,194.32a30.91,30.91,0,0,0,3.32-.18C249.5,192.78,261,191,265.24,184c1.31-2.14,2.47-5.69.63-10.47C259,155.62,243,156.39,236.22,156.71l.25,5.4-.26-5.4-.51,0c-6.57.3-24,1.11-27.6,12.48-1.54,4.9-.15,10.46,3.79,15.26C217,190.7,225.16,194.32,233.74,194.32Zm-15.33-21.86c.31-1,2.5-4.23,17.78-4.93l.55,0c1.11-.05,2.2-.09,3.27-.09,6.77,0,12.5,1.52,15.78,10.05a3.16,3.16,0,0,1,.24.94c-.53,1.11-3.85,3.22-20.15,5a17.89,17.89,0,0,1-15.64-5.78C218.7,175.75,218,173.77,218.41,172.46Z"/><path class="cls-1" d="M85.53,336.18a27.1,27.1,0,0,0,10.73,2.72,12.5,12.5,0,0,0,5-1,9.94,9.94,0,0,0,5.54-6.09c.47-1.38,1.44-3.44,2.47-5.61,3.25-6.89,6.06-12.83,4-17.56a7.39,7.39,0,0,0-4.52-4.14c-7-2.32-16.67-.32-21.37,3s-7,15.79-6.51,21.08C81.35,333.34,83.67,335.33,85.53,336.18Zm8.58-20.1a18.47,18.47,0,0,1,8.55-1.74c-.78,2.22-2.25,5.34-3.17,7.28-1.1,2.33-2.14,4.53-2.83,6.47A13,13,0,0,1,91.6,327,30.8,30.8,0,0,1,94.11,316.08Z"/><path class="cls-1" d="M188,225.41a13.45,13.45,0,0,1,3.22,2.46c1.42,1.33,3.48,3.25,6.31,3.25a6.74,6.74,0,0,0,6.38-4.56,9,9,0,0,1,1.13-1.92c2.65-3.59,1.54-6.27,0-8.93-1.69-3-7.31-7.42-12.28-7.48a7.52,7.52,0,0,0-6.74,3.7,7.75,7.75,0,0,1-1,1.16c-1,1.08-3.12,3.31-2.49,6.61C183.29,223.23,186.59,224.76,188,225.41Z"/><path class="cls-1" d="M173.51,301.46a14.24,14.24,0,0,0,10.39-.38,13.68,13.68,0,0,0,11.69,6.06,17.65,17.65,0,0,0,3.92-.45c5.74-1.3,16.45-8.32,16.45-19.4a12.77,12.77,0,0,0-3.75-9.52,12.13,12.13,0,0,0-1.19-1,17.22,17.22,0,0,0-.91-13.9c-4.11-8.11-13.28-12.13-23.37-10.23C169,256,159.45,268.12,161.23,285.11,162,292.48,167.05,299.21,173.51,301.46Zm15.23-38.2c6.37-1.2,10.23,1.53,11.73,4.49a6.46,6.46,0,0,1-1.37,7.88A5.4,5.4,0,0,0,203,285h0a3.35,3.35,0,0,1,1.73.58,2.74,2.74,0,0,1,.43,1.74c0,4.62-6,8.39-8,8.86-2.67.6-4.54.07-5.63-4.45a5.4,5.4,0,0,0-9.11-2.51c-2.85,2.92-4.71,2.27-5.32,2.06-2.43-.85-4.76-4.18-5.09-7.28C171.15,276.12,173.39,266.15,188.74,263.26Z"/><path class="cls-1" d="M450.65,208.37c-9.47-12.81-15.53-24.6-20.88-35-6.57-12.78-12.25-23.81-22.11-33.45C377,110,357.13,107.51,341.15,105.52l-.37,0c-10.95-1.36-20-5.91-29.67-10.72-15-7.49-30.43-15.22-53.31-11.09C234.49,87.89,228.3,104,227,108.77a23.29,23.29,0,0,0-.64,10.59c-10,3.76-18.48,11.94-29.23,22.32-3.43,3.31-5.08,5.17-7,7.33-2.16,2.43-4.6,5.19-10.54,11.12-5.71,5.7-11.67,11.35-17.25,16.34-9.12,8.16-16.41,13.91-20.77,17.35l-1,.82c-23.83,18.84-31.88,28.34-45.2,44.07L94.22,240c-2.4,2.82-4.76,5.5-7,8.1-9.17,10.4-17.09,19.38-21.06,30.86a88.3,88.3,0,0,1-6.75,14c-5.19,9.34-10.57,19-9.62,32.29.28,3.86-1.3,7-3.69,11.63-3.69,7.23-8.74,17.14-8.77,35.37a91.33,91.33,0,0,1-2.78,21c-2,9-3.72,16.8,2.1,24.22,4.83,6.14,9.89,7.58,13.57,7.58a14.48,14.48,0,0,0,3-.33c6.78-1.5,12.42-7.79,16.31-15.24,8.74,0,19.08-7.55,31.61-16.67,12.16-8.85,25.94-18.89,39-22.2,5.32-1.35,12.53-3.68,20.88-6.37,20.1-6.48,47.62-15.36,66.42-16,12.75-.43,32.87-3.74,52.34-6.94,14.68-2.41,28.56-4.68,37.85-5.49,5.75-.5,15.36-.48,26.47-.45,39.36.11,98.83.27,119.85-20.89a27.13,27.13,0,0,0,6.42-12.31C477.32,278,473.94,239.88,450.65,208.37ZM237.51,111.18c1-3.2,5.51-13.86,22.21-16.88,19.33-3.5,32.56,3.12,46.56,10.12,10,5,20.37,10.19,33.17,11.78l.36,0c14.38,1.79,32.28,4,60.3,31.41,8.61,8.41,13.91,18.72,20.05,30.66,5.54,10.76,11.81,23,21.8,36.48a107.06,107.06,0,0,1,20.64,56c-5.75-6-14-8.95-23.41-8.23a45.89,45.89,0,0,0-17.37,5.08,53.24,53.24,0,0,0-3.55-20c-2.33-6.29-4.65-8.94-8.17-13A161.71,161.71,0,0,1,396.53,217c-7.38-10.84-12.92-20.71-14.44-23.47A129.55,129.55,0,0,1,376,181.24a19.4,19.4,0,0,0-3.72-6.12c-6.37-7.35-13-9.11-19.43-10.81-5.26-1.4-10.7-2.84-17.4-7.54a28,28,0,0,1-8.14-8.21,43.57,43.57,0,0,0-12.07-12,86.35,86.35,0,0,0-32.42-13.76,68.39,68.39,0,0,0-11.16-1.23A164,164,0,0,1,254.91,120a123.06,123.06,0,0,1-12.39-2.2,17.55,17.55,0,0,0-5.61-.63A13.21,13.21,0,0,1,237.51,111.18Zm-142.24,144c2.33-2.63,4.73-5.35,7.19-8.26l1.08-1.27c10.09-11.92,16.76-19.78,29.37-30.78,11,5.12,17,15,16.12,26.84-.7,9.65-4.84,13.46-20.57,26.52q-2,1.64-4.16,3.46c-11.17,9.32-23.88,7.65-28.83,6.5-6.33-1.47-10.83-4.35-13.19-7.12A174.34,174.34,0,0,1,95.27,255.22ZM50.88,414.08c-.66.14-2.67.59-5.78-3.37-2.56-3.27-1.87-7-.05-15.21a102.31,102.31,0,0,0,3-23.28c0-15.64,4-23.52,7.59-30.47,2.74-5.38,5.33-10.45,4.84-17.3-.72-10.1,3.45-17.6,8.28-26.28a97.53,97.53,0,0,0,7.52-15.71c.18-.51.38-1,.58-1.53A38.13,38.13,0,0,0,93,288.75,46.39,46.39,0,0,0,103.55,290a42.92,42.92,0,0,0,27.67-10l4.13-3.44c15.58-12.92,23.4-19.41,24.46-34a37,37,0,0,0-18-35.1c1.69-1.38,3.48-2.81,5.38-4.31l1-.82c4.46-3.51,11.91-9.4,21.28-17.78,5.72-5.12,11.84-10.91,17.68-16.75,6.17-6.16,8.84-9.17,11-11.59,1.84-2.08,3.29-3.71,6.42-6.74,12.94-12.5,21.49-20.76,32.45-21.47a7.28,7.28,0,0,1,3,.33,129.08,129.08,0,0,0,13.36,2.39,172.82,172.82,0,0,0,17.68,1.66,57.49,57.49,0,0,1,9.61,1,75.53,75.53,0,0,1,28.26,12,32.76,32.76,0,0,1,9.47,9.41,38.92,38.92,0,0,0,10.77,10.82c8.27,5.81,15.24,7.65,20.83,9.14,5.93,1.57,9.85,2.61,14,7.45a9.24,9.24,0,0,1,2,3.34,141,141,0,0,0,6.57,13.19c2,3.68,7.54,13.41,15,24.34A173.76,173.76,0,0,0,402,241.73c3.2,3.66,4.53,5.17,6.17,9.59,4.43,12,2.94,21.07.91,26.6a11.37,11.37,0,0,1-.85,1.7l-.08.13h0a78.45,78.45,0,0,1-9.92,12.52c-4.69,5-6.74,4.59-12.83,3.28a47.12,47.12,0,0,0-19.48-.84c-3.27.57-5.88,2.56-8.39,4.48-4.78,3.64-10.19,7.77-22.49,4.57-5.78-1.51-18.17-3.31-24.4-2.69-9.66,1-16.65,4.67-22.43,8.07S277,317,271.85,321.35c-7.2,6-14.65,12.19-20.25,12.4-9.47.39-16-3.58-23.58-8.15-8.51-5.15-18.15-11-32.39-9.35-8.15.94-12.72,3.43-18.5,6.58-2.91,1.58-6.21,3.38-10.64,5.33-6.31,2.78-14.52,3.86-32.48,6-22.2,2.67-35.45,19.9-41.11,27.26-.41.53-.77,1-1.09,1.4-3.92,4.94-8.33,8.35-12.59,11.64-6.53,5-13.29,10.26-15.56,19.9S55.54,413.05,50.88,414.08Zm106.81-60.21c-8.18,2.63-15.24,4.91-20.23,6.18-15.06,3.82-29.74,14.51-42.69,23.94-6.93,5-15,10.94-20.73,13.43,0-.19.09-.38.14-.56,1.39-5.91,5.69-9.23,11.64-13.83,4.56-3.52,9.72-7.5,14.45-13.47.35-.44.75-.95,1.19-1.53,4.83-6.29,16.15-21,33.84-23.13s27.5-3.31,35.55-6.85c4.84-2.14,8.35-4.05,11.45-5.74,5.3-2.89,8.5-4.63,14.57-5.33,10.55-1.22,17.51,3,25.56,7.86,1.39.84,2.81,1.7,4.27,2.54C206.42,338.15,178.27,347.23,157.69,353.87Zm186.42-29.39c-11.84,0-21.2-.06-27.44.49-9.7.84-23.77,3.15-38.66,5.6l-.44.07,1.19-1c4.86-4,9.88-8.23,14.92-11.2,5.22-3.07,10.53-5.89,18-6.63,4.39-.44,15.17,1,20.6,2.39,17.39,4.53,26.39-2.33,31.77-6.43a16.62,16.62,0,0,1,3.7-2.43c6.51-1.14,11-.17,15.35.76,6.95,1.49,14.14,3,23-6.48A88.49,88.49,0,0,0,417.56,285h0c2.77-4.95,12.67-11,22.45-11.72,4.76-.36,11.38.41,15.82,6.12,7.84,10.08,4.4,23.36.43,27.36C438.43,324.73,379.39,324.57,344.11,324.48Z"/></svg>