<svg id="Layer_1" data-name="Layer 1" xmlns="http://www.w3.org/2000/svg" viewBox="0 0 511.35 511.35"><defs><style>.cls-1{fill:#fff;}</style></defs><path class="cls-1" d="M308.75,330.51c-13.36.7-31.71,4.77-39.45,13.93-6,7.13-8.19,27.29-6.73,41.88,1,10.2,3.71,17.08,8,20.46,4.59,3.63,16.58,5.81,28.95,5.81a92.86,92.86,0,0,0,15.5-1.24c12.6-2.2,21.63-7.17,26.11-14.37,5-8.08,10.62-47.43-2-59.5C331.75,330.42,316.93,330.08,308.75,330.51Zm-31.5,67.8c-1.06-.84-3.07-4.54-3.93-13.07-1.47-14.71,1.55-30.66,4.23-33.83,3.85-4.56,14.88-8.43,27.2-9.74-4.76,7.87-10.36,19.87-10.36,32.82,0,9.69,8.52,20,15.42,26.71C294.77,403.07,279.76,400.22,277.25,398.31ZM336,368.4c-.4,11.2-2.63,20.64-4,22.87-2,3.18-5.53,5.38-9.41,6.9-7.48-6.25-17.34-16.81-17.34-23.68,0-14.38,9.05-28.1,12.77-33.14,7.09.51,11.83,2.15,13.69,3.93C333.94,347.47,336.43,354.84,336,368.4Z"/><path class="cls-1" d="M371.53,279.71c0,13.86,23.62,21.12,47,21.12s46.95-7.26,46.95-21.12-23.62-21.12-46.95-21.12S371.53,265.84,371.53,279.71Zm47-10.32c23.48,0,36.15,7.32,36.15,10.32S442,290,418.48,290s-36.14-7.32-36.14-10.31S395,269.39,418.48,269.39Z"/><path class="cls-1" d="M500.67,269.36c-6.15-14.21-24.66-25.65-49.48-31.1A156.22,156.22,0,0,0,480,223.85c6.79-2.51,14.69-7.33,18.33-19.28,1.75-5.76-2.14-11.72-7.07-19.26-2-3-4.05-6.19-5.74-9.36a83.12,83.12,0,0,1-7-17.16,94.44,94.44,0,0,0-3.88-11c-5.61-12.92-14.17-20.2-28.34-32.27-3.4-2.89-7.25-6.17-11.43-9.85A83.15,83.15,0,0,1,427,97.25c-7.41-8.65-15.8-18.46-33.84-22.84-5.47-1.32-11.65-4.15-17.62-6.89-12.36-5.66-25.13-11.51-35-5.53-12.64,7.66-19.86,24.37-17.64,33.63a10.75,10.75,0,0,0,.45,1.42c-4.27,8.17-15.57,30.31-18.28,40.7a146.09,146.09,0,0,0-2.73,15.67c-1.32,9.32-2.81,19.89-6,29.18-4.57,13.26-14.54,58-18.11,74.33-.52-14.18-1.73-46.9-2.52-65.34-.33-7.54.66-40.81.86-47.41s-.87-30.22-1.25-38.5c5.28-7.12,3.13-33.23,1.18-40.5-1.11-4.15-4.35-7.5-9.64-10-15.09-7-47.25-6.17-63.73,1.62a72.06,72.06,0,0,0-14.91,9.51A52.71,52.71,0,0,1,171.38,76c-8.12,3-13.21,3.31-19.1,3.72a102.24,102.24,0,0,0-18,2.53c-20,4.75-33.37,17.06-41.35,24.41-1.67,1.55-3.12,2.88-4.2,3.74C78.1,118.8,61.21,136.24,48.6,157.58,43.05,167,36.2,175.5,30.16,183c-6.87,8.54-12.81,15.93-15.3,22.67-.47,1.27-.91,2.42-1.33,3.52-3.4,8.85-5.45,14.2-5.67,35.87a116.39,116.39,0,0,1-1.76,19c-.89,5.58-1.59,10,.29,14.53,2.7,6.51,9.15,11.3,17.1,12.81l20.17,8A54.64,54.64,0,0,0,32,308.3c-10,10.42-16.5,31.14-17.89,56.83C12.89,387.92,16,410.07,22,421.58,31.53,439.9,60.77,458.32,79.55,462a13.56,13.56,0,0,0,2.46.22c4.36,0,8.68-1.95,11.19-3.33,10.78,4.71,29.18,7.59,47.59,7.59a153.3,153.3,0,0,0,20.92-1.36c23.49-3.24,40.22-11.86,48.37-24.93a32.79,32.79,0,0,0,2.94-6.56c.53-1.25,1-2.55,1.51-3.92,7.85,4.18,17.93,8.49,24.64,9.78a12.8,12.8,0,0,0,2.46.23c5.19,0,10.33-2.77,12.41-4,10.84,4.57,28.94,7.35,47,7.35A154.93,154.93,0,0,0,322,441.64a95.89,95.89,0,0,0,27.92-7.81c5.77-.61,11.39-5.78,15.44-10.75a38.91,38.91,0,0,0,5-6.38,41.26,41.26,0,0,0,4.06-10.15c.35-1,.69-2,1-3.08,13.22,6,28.72,9.08,44.44,9.08a115.67,115.67,0,0,0,45.18-8.95c19.57-8.41,32.68-21.5,36.93-36.85,2.54-9.22,4.43-30.57,4.58-51.93C506.84,280.36,502.85,272.05,500.67,269.36Zm-8.56,10.44c0,16.52-29.81,34.2-74.18,34.2-19.73,0-38.24-3.66-52.37-10.32a115.35,115.35,0,0,0-20.77-18.42,15.26,15.26,0,0,1-1-5.46c0-16.51,29.8-34.2,74.17-34.2S492.11,263.29,492.11,279.8Zm-246.62,38a30.21,30.21,0,0,0-4.42,5.55l-.93,1c-9.56,10-15.73,15.74-25.62,13a50.34,50.34,0,0,0-6.89-13.93,73.73,73.73,0,0,0-16.53-15.69,44.39,44.39,0,0,1,7.62-13.68c3.08,2.36,8.59,4.68,25.61,7,11.09,1.5,22.46-1.91,35.63-5.86,12.08-3.62,25.76-7.72,41.77-8.65a65.06,65.06,0,0,1,46.36,15.26c-11.26-3.4-25.73-4.79-41.87-3.83C285.57,299.17,258.77,305,245.49,317.81ZM132.93,283h0c-13.11-3.09-29.49-2.37-45.44.74a40.18,40.18,0,0,0-5.68-20.27c-5.86-9.77-18.86-10.34-27.6-9.45a102.39,102.39,0,0,1,6.26-17.2c3.22-6.9,5.72-9.48,10.27-14.16a185.39,185.39,0,0,0,17.67-20.76,157.64,157.64,0,0,0,16.46-26.52c2.81-5.6,4.84-9.64,10.81-16.31,8.24-9.21,18-13.24,30.45-18.34,6-2.45,12.75-5.24,20.12-8.93,6-3,11-5.7,15.42-8.07,5.83-3.13,10.43-5.59,14.78-7.47-3.15,5.74-4.88,12-3.32,17.2,3.44,11.52,17.48,17,28.52,17a27.62,27.62,0,0,0,5.7-.56c11.67-2.48,23.46-13.31,22.18-26.49a29.77,29.77,0,0,0-4.86-14.23c8.19-.67,14.46-1.07,19.94-1,.44,9.51,1.32,30,1.15,35.57-.29,9.36-1.19,40.49-.85,48.21.32,7.44.71,17.21,1.09,27.14-11.06-6.5-26.43-13.16-37.63-2.57s-22.93,33-12.25,52.65a75.56,75.56,0,0,0-24.47,16.53,50.4,50.4,0,0,0-9.81,16c-15.31-8.86-33.37-15.17-48.88-18.74h0ZM215.24,111.7c4.72-.36,9-.72,13-1,2.9.53,9.38,2.41,10.51,13.89.67,6.91-6.67,13.39-13.68,14.87-7.77,1.66-19.65-2.42-21.63-9-1.14-3.82,4.08-13.24,10.07-18.53Zm20.54,112.77c6.88-6.51,19.42.54,30.69,7.74.41,10.82.77,20.65,1,26.47a151.87,151.87,0,0,0-41.09,6.73C216.18,249.05,229.8,230.12,235.78,224.47ZM273,269.38h.16c3.25,0,6.41.17,9.44.43,6,.51,13.53,2.59,21.66,5.79-1.05,0-2.1.05-3.16.12-17.27,1-31.6,5.29-44.24,9.08-12,3.59-22.31,6.69-31.09,5.51-10.74-1.45-15.87-2.8-18.42-3.8C224.76,274.24,250.94,269.17,273,269.38Zm168.32-89,1.79,1.82c6.85,6.95,11.38,11.55,12,18.84.24,2.69,1,8.19,2,13.07a50.05,50.05,0,0,0,2.41,8.75A156,156,0,0,1,435.73,232c-6.09.13-11.24-1.56-15.34-5-7.24-6.17-10.22-16.87-10.6-24.82C409.5,196,412,187,419.93,182.23,426.64,178.21,437.37,179.55,441.32,180.37ZM346.11,71.23c5-3,15.11,1.62,24.91,6.11,6.44,3,13.1,6,19.57,7.57,14.65,3.56,21.22,11.24,28.18,19.36a93.59,93.59,0,0,0,9,9.55c4.25,3.74,8.14,7.05,11.57,10,13.42,11.43,20.82,17.72,25.43,28.34a86.18,86.18,0,0,1,3.46,9.81A93,93,0,0,0,476,181c1.91,3.61,4.21,7.11,6.23,10.21,2.24,3.42,5.6,8.56,5.72,10.37-3.11,9.94-10.08,11.85-16.82,13.7-.82.22-1.63.45-2.42.68a122.56,122.56,0,0,1-2.79-15.91c-1-11.15-7.53-17.78-15.1-25.46-2.8-2.84-5.69-5.78-8.7-9.3A69.44,69.44,0,0,1,430.26,147c-2.32-5-4.51-9.71-11.13-15.83-7.63-7.05-12.35-8.39-17.34-9.81-4.38-1.24-9.34-2.65-18.77-9.49a71.29,71.29,0,0,1-11.19-10.39c-5-5.42-9.72-10.54-18.45-10.85-.69,0-1.38,0-2.06,0a99.79,99.79,0,0,0-11.6.83,59.3,59.3,0,0,1-6.47.51C333.18,86.88,337.81,76.27,346.11,71.23ZM315.5,140.47c2.17-8.32,11.82-27.7,17.11-37.87a51.49,51.49,0,0,0,8.33-.5,81.45,81.45,0,0,1,12.05-.73c4.06.15,6.27,2.37,10.89,7.38a82.29,82.29,0,0,0,12.8,11.82c11,8,17.18,9.72,22.15,11.13,4.36,1.24,7.23,2.05,13,7.36,5.05,4.66,6.57,7.93,8.67,12.44a77,77,0,0,0,10.44,17.22c-5.39.14-11.42,1.18-16.53,4.25-9.91,5.95-15.95,17.61-15.38,29.71.24,4.9,1.94,21.6,14,32.2-43.95,1.27-78,19.45-80,42.79-15.29-9-31.76-15.66-44.41-17.92,1.42-6.48,4-18.06,6.81-30.3,3.39,2.82,7.76,4.25,13.1,4.25a42.88,42.88,0,0,0,11.2-1.68c5.18-1.41,17.64-6,21.69-17.8,1.78-5.21.67-10.65-1.35-20.51-2.2-10.78-3.41-16.72-7.95-20.47-4.84-4-11.91-5.49-18.93-4a26,26,0,0,0-2.56.69c1-5.15,1.69-10.25,2.37-15A140.48,140.48,0,0,1,315.5,140.47Zm-15.86,71.24c2.52-10.35,4.9-19.57,6.58-24.69a5.85,5.85,0,0,0,.63-1,12.19,12.19,0,0,1,8.63-6.22c3.75-.81,7.5-.13,9.78,1.75,1.6,1.32,2.71,6.76,4.25,14.3,1.64,8,2.54,12.42,1.71,14.86-2.44,7.13-11.57,10.12-14.31,10.87-7.62,2.08-12.77,1.7-15.28-1.12-2.12-2.38-2.07-6.08-1.95-7.57A4.79,4.79,0,0,0,299.64,211.71ZM16.77,265.81a128.29,128.29,0,0,0,1.89-20.62c.2-19.73,1.89-24.13,4.95-32.11.44-1.13.9-2.33,1.38-3.64,1.89-5.1,7.31-11.84,13.59-19.66S52,173.15,57.91,163.07a172.16,172.16,0,0,1,37.55-44.25c1.39-1.11,3-2.57,4.8-4.25,7.21-6.64,19.26-17.75,36.52-21.85A90.82,90.82,0,0,1,153,90.46c6.43-.45,12.5-.87,22.05-4.35a63.62,63.62,0,0,0,19.78-11.26,60.63,60.63,0,0,1,12.85-8.24c7.39-3.49,19.53-5.32,31-5.32,9.33,0,18.19,1.22,23.62,3.73,2.5,1.16,3.58,2.31,3.75,3,2,7.59,2.28,23.57,1.08,29.57-8.45-.34-17.88.47-32.47,1.72-5.86.5-12.5,1.08-20.24,1.67-1.2.09-2.34.21-3.47.35h0c-13.15,1.57-21.41,6-34.4,13-4.35,2.34-9.27,5-15.16,7.93-7,3.51-13.29,6.1-19.37,8.6-13.15,5.4-24.5,10.07-34.4,21.13a72.85,72.85,0,0,0-12.42,18.67c-3,5.93-6.35,12.65-15.47,24.92A173.67,173.67,0,0,1,63,215.16c-4.83,5-8.32,8.57-12.31,17.12-6.91,14.8-8.79,26.56-10.17,35.15-.69,4.36-1.35,8.49-2.39,9.9-2.08,2.83-6.57,4.28-11.44,3.69l-.24,0-7.24-2.89a8.89,8.89,0,0,1-2.81-3.59C15.69,272.86,16,270.52,16.77,265.81Zm26.17,21.76a18.25,18.25,0,0,0,3.86-3.84c2.59-3.52,3.33-8.17,4.36-14.6.2-1.21.4-2.51.64-3.86,7-1.16,17.63-1.37,20.73,3.79a29.72,29.72,0,0,1,4.07,17.22A154,154,0,0,0,56.65,293ZM81.6,451.34c-16-3.09-42.21-19.73-50-34.76C21,396.35,21.68,334.7,39.81,315.77c12.84-13.4,60.52-29.34,90.65-22.22l1.24-5.26-1.21,5.27c23.07,5.3,54.8,18,68.41,36.22-11.89-6.62-30.86-9.71-53-8.4-20.66,1.23-47.46,7.09-60.73,19.87-11.5,11.07-15.3,37.12-15,57.81.13,9,1.47,37.46,13,52.19A4.45,4.45,0,0,1,81.6,451.34Zm78.63,3c-30.87,4.26-61.1-2.63-66.62-7.66-7.25-6.6-12.32-25.81-12.62-47.8-.32-22.79,4.39-42.84,11.7-49.88,9.19-8.85,30.34-15.47,53.88-16.87,23.38-1.39,43.68,2.68,51.73,10.37,14.57,13.93,11.42,66.72,4.95,86.5a40,40,0,0,1-1.72,3.65l.25.13a15.83,15.83,0,0,1-.86,1.61C192.83,447.39,174.33,452.43,160.23,454.37Zm81-25.53c-5.4-1-15.63-5.32-23.76-9.89a174.13,174.13,0,0,0,3.33-39.47,177.4,177.4,0,0,0-3.23-30.68q.88.06,1.74.06a26.41,26.41,0,0,0,13.92-4.12,146,146,0,0,0-2.74,30.88c.12,9.09,1.5,38.28,13.48,52.82A6.54,6.54,0,0,1,241.22,428.84Zm79.3,2.1c-30.86,4.26-61.1-2.64-66.62-7.66-7.24-6.61-12.32-25.82-12.62-47.81-.26-19.06,3-36.19,8.33-45.41,5.6-5.8,11.05-11,17.77-12.78a5.35,5.35,0,0,0,2.26-1.23c10.27-3.85,23.33-6.5,37.22-7.32,3-.18,6-.27,8.95-.27,19.5,0,35.78,4,42.78,10.63,13.68,13.08,11.75,60.4,6.1,82.52a53.09,53.09,0,0,1-3.53,8.57,38.66,38.66,0,0,1-3.73,5.6C348.24,425.24,332.73,429.25,320.52,430.94ZM495.78,316c-.2,19.72-2,39.87-4.19,47.91-3.35,12.13-14.28,22.71-30.77,29.8-26.05,11.19-58.91,10.77-82.68-.87a161.7,161.7,0,0,0,3-32.45c-.09-16.44-2.43-30.91-6.58-41.69a149,149,0,0,0,43.41,6.15c35,0,64.43-10.68,77.58-26.35C495.74,303.41,495.85,309.23,495.78,316Z"/><path class="cls-1" d="M149.74,352.86c-13.36.7-31.71,4.77-39.45,13.93-6,7.13-8.19,27.29-6.73,41.87,1,10.2,3.71,17.09,8,20.47,4.59,3.63,16.58,5.81,29,5.81a91.71,91.71,0,0,0,15.5-1.25c12.6-2.19,21.63-7.16,26.11-14.36,5-8.08,10.62-47.43-2-59.5C172.74,352.76,157.92,352.43,149.74,352.86ZM177,390.75c-.39,11.2-2.63,20.63-4,22.87-3.49,5.6-11.88,8.17-18.31,9.34-16.21,3-33.66-.22-36.38-2.31-1.06-.84-3.07-4.53-3.93-13.06-1.47-14.71,1.55-30.66,4.23-33.83,4.33-5.12,17.69-9.37,31.77-10.11,11.9-.63,19.8,1.55,22.34,4C174.93,369.82,177.43,377.18,177,390.75Z"/><path class="cls-1" d="M146.87,240.28c1.6,2.93,4.27,7.83,9.84,8.68a9.8,9.8,0,0,0,1.61.13c5.3,0,10-3.9,13.2-7,6.39-6.15,9.35-11.76,9.07-17.12-.34-6.48-5.25-10.3-8.18-12.58l-.91-.72c1.08-14.2-.63-27.4-17.22-30.53h0c-11.53-2.18-28.58,7.25-38.82,21.45a27.22,27.22,0,0,0-4.14,22.92c1.92,7.63,6.58,14.07,12.18,16.81s15.33,1.06,23.36-2.1Zm-18.63-7.63c-2.26-1.11-5.21-4.8-6.44-9.73a16.71,16.71,0,0,1,2.42-14c8.83-12.25,22.29-18.24,28.06-17.16h0c5.38,1,10,1.89,8.31,20.73-.37,4.1,2.71,6.5,5.19,8.42,1.85,1.44,3.94,3.07,4,4.62,0,.72-.26,3.47-5.78,8.78-3.48,3.35-5.18,3.85-5.61,3.93a14.86,14.86,0,0,1-2.06-3.17c-1.08-2-3.62-6.61-8-6.61a7.52,7.52,0,0,0-3.14.74C137.17,232.91,129.89,233.41,128.24,232.65Z"/><path class="cls-1" d="M360.64,156a6.81,6.81,0,0,0,2.44,5.17c2.36,2.06,5.89,2.72,8.46,2.72a13.24,13.24,0,0,0,1.64-.1c3.08-.43,6.79-2.16,6.9-7.94a4.74,4.74,0,0,1,.07-1c1.12-3.71-.2-8-3.45-11.29-2.89-2.88-6.52-4-9.71-3.06-6.94,2.1-6.6,9.44-6.41,13.39C360.61,154.64,360.64,155.34,360.64,156Z"/></svg>