<svg id="Layer_1" data-name="Layer 1" xmlns="http://www.w3.org/2000/svg" viewBox="0 0 511.35 511.35"><defs><style>.cls-1{fill:#fff;}</style></defs><path class="cls-1" d="M479.85,372.72h0c0-.25,0-.5,0-.75,0-29.63-64.11-46.87-130.64-49.78C353.83,260.71,355,176,355,175.07a5.4,5.4,0,0,0-4.21-5.34l-8.2-1.84c14.16-26.79,33.72-43.44,49.6-56.94a5.41,5.41,0,0,0,.45-7.8L371.75,80.73a5.44,5.44,0,0,0-4.37-2.24c-1.36,0-2.72,0-11.17,6.66a189.48,189.48,0,0,0-19,17.42c2.81-29.26,3.66-51.82,3.67-52.09a5.4,5.4,0,0,0-5.11-5.59l-32.44-1.7a5.38,5.38,0,0,0-5.67,5.13c0,.33-1.56,31.09-4,59.23a5.46,5.46,0,0,0-2.1-.3,4.93,4.93,0,0,0-3.95,2.15l0,0c-.09.11-.17.22-.25.34-.43.54-.9,1.19-1.46,1.94-.77,1-1.9,2.6-3.31,4.59.1-7.62-.4-13.65-.43-14.09a5.41,5.41,0,0,0-5.38-4.94H253.1c6.22-23.89,9.61-41.67,9.67-42a5.41,5.41,0,0,0-4-6.25l-31.89-7.8a5.4,5.4,0,0,0-6.5,3.85c-.15.53-10.39,38.75-19.87,68.58a744.28,744.28,0,0,0-13.78-85.27,5.41,5.41,0,0,0-6.31-4.08L146.06,31a5.39,5.39,0,0,0-4.25,6.36c.07.34,4.06,20.38,7.72,42L115.91,78a5.4,5.4,0,0,0-5.6,4.81c0,.26-1.16,10.84-2,27.23L86.54,57.73a5.41,5.41,0,0,0-7.2-2.86L49,68.5a5.4,5.4,0,0,0-2.86,6.79c.32.87,6.74,18.31,12.59,32.33L38.46,134a5.41,5.41,0,0,0,.22,6.86l19.59,22.31-5.19-.11a5.42,5.42,0,0,0-5.51,5.08C44,229,56.36,346.12,69.73,413.24a5.39,5.39,0,0,0,2.49,3.56l35.06,21.37a5.43,5.43,0,0,0,2.82.8,5.15,5.15,0,0,0,1.1-.12,5.76,5.76,0,0,0,1-.29c1.92-.75,41.73-15.92,92.87-15.7a132.69,132.69,0,0,0,20.07,15.79,168.76,168.76,0,0,0,37.1,17.77,17.46,17.46,0,0,0-1.27,6.51c0,18.34,29.34,32.16,68.24,32.16s68.25-13.82,68.25-32.16a17.53,17.53,0,0,0-1.37-6.67c26.16-8.79,49.14-22.43,64.93-39.43C474.39,402.41,480.91,387.16,479.85,372.72ZM469.06,372c0,6.2-6.69,12.76-18.59,18.68a12,12,0,0,0,.16-1.9c0-23-63-33.44-121.53-33.44s-121.53,10.46-121.53,33.44a12,12,0,0,0,.16,1.9c-11.9-5.92-18.59-12.48-18.59-18.68,0-9.13,14.49-19.05,38.77-26.53,27-8.31,62.89-12.89,101.19-12.89s74.24,4.58,101.2,12.89C454.57,352.92,469.06,362.84,469.06,372Zm-98,37.51-.43,0c-8.65.8-17.58,1.35-26.71,1.63l-1.24,0c-1.77.05-3.55.09-5.33.12l-1.61,0q-3.3,0-6.63.05t-6.63-.05l-1.61,0c-1.78,0-3.56-.07-5.33-.12l-1.24,0c-9.13-.28-18.07-.83-26.72-1.63l-.41,0-4.93-.5a269.66,269.66,0,0,1-34-5.66c-24.51-5.91-29.87-12.52-29.87-14.57s5.36-8.66,29.87-14.58c21.54-5.2,50.25-8.06,80.85-8.06S388.42,369,410,374.17c24.51,5.92,29.88,12.53,29.88,14.58s-5.37,8.66-29.88,14.57A270.14,270.14,0,0,1,376,409Zm-32.62-87.63c-3.11-.06-6.23-.1-9.33-.1-3.64,0-7.29.05-11,.13,3.94-41.39,5.88-79.7,6.82-105,.59-15.94.83-28,.93-35.22,0-2.64.06-4.75.07-6.43l18.16,4.09C343.83,197.51,342.43,268.65,338.43,321.85ZM366.51,91l14.38,15.44c-15.64,13.42-35.26,31.46-49.2,59.05l-9.37-2.11a6,6,0,0,0-.93-.22c-.15,0-.29,0-.44,0h-.12a5.28,5.28,0,0,0-2,.26l-.23.08a3.82,3.82,0,0,0-.46.21l-.37.19-.36.24a5.07,5.07,0,0,0-.45.36l-.23.2a6.35,6.35,0,0,0-.54.61c-2.93,3.93-5.78,7.69-8.62,11.28l-.24,0-6.89-.53C324.32,124.69,356.42,98.33,366.51,91Zm-67.46,95.72c-7.71,8.66-15.86,16.08-25.88,22.17,1.4-9.83,2.39-18.61,2.94-23.93ZM329.84,55.4c-.51,10.24-1.91,34.11-5,61.12q-4.08,5-8.37,10.85L303.74,116c2.19-23.24,3.79-50.41,4.41-61.76ZM292.7,120.65l17.6,15.65a269.1,269.1,0,0,0-21.37,38.76l-17.26-1.32a5.39,5.39,0,0,0-5.79,4.9c0,.18-1.59,17.57-4.56,36.38A134.89,134.89,0,0,1,236.77,223,514.61,514.61,0,0,1,292.7,120.65ZM206.75,227.54c-4.61.43-9.16.61-13.65.58,1.84-23,5.12-51.35,6.53-63.12l21.9,3.31c-1.62,12.21-5.49,42.33-6.59,58.36C212.29,227,209.57,227.28,206.75,227.54Zm-54.11-6.67c-4.37-14.82-13.27-37.76-17.33-48l20.6-7.35c4.67,9.41,15.87,34,20.17,61.33A117.14,117.14,0,0,1,152.64,220.87ZM154,139.55a5.55,5.55,0,0,0,1.56-1.27L170,121c6.05,7.2,17.41,21.14,24.48,32.46a5.33,5.33,0,0,0-4.85,4.69c-.05.34-3.28,26.46-5.76,52.3a237.41,237.41,0,0,0-20.56-54.26,5.4,5.4,0,0,0-6.54-2.46l-3.36,1.2C153.46,150.38,153.67,145.11,154,139.55ZM271.65,108c.24,6,.31,16.32-1.34,24.36a5.48,5.48,0,0,0,0,2.21q-2.38,3.75-5,8a530.05,530.05,0,0,0-39,77.37c2-21.27,6.55-55.06,6.61-55.47a5.38,5.38,0,0,0-.41-2.88A523.73,523.73,0,0,0,250.2,108ZM229.41,52.91l21.74,5.32c-1.56,7.55-4.9,22.92-9.81,41.25a5.33,5.33,0,0,0-1,3.14c0,.15,0,.3,0,.46a519.67,519.67,0,0,1-17.84,54.46l-14.64-2.22a107.41,107.41,0,0,0-6.66-11.23C210.24,122.42,224.85,69.68,229.41,52.91Zm-52.1-17c3,14,11.16,54.56,13.65,94-8.39-10.94-16.39-20.11-17-20.79a5.3,5.3,0,0,0-4.12-1.84,5.4,5.4,0,0,0-4.08,1.94l-.74.88c-2.72-22.93-9.06-56.51-11.59-69.49Zm-22,85.82-.37.44c.06-1,.12-1.93.19-2.88C155.19,120.09,155.25,120.91,155.3,121.69ZM120.57,89l25.78,1.08c-1.07,13.86-3.7,49.69-3.85,68.77l-16.1,5.74a5.41,5.41,0,0,0-3.19,7.11c.12.3,10,24.71,16.26,43.43a127.69,127.69,0,0,1-18.58-11.68s0-.07,0-.11C115.51,155.57,119.17,104.84,120.57,89ZM78.7,67l28.38,68.26a5.52,5.52,0,0,0,.28.54c-.1,5.23-.13,10.7-.09,16.33-16.21-23.27-30.66-38.3-36.59-44.1-4.43-10.21-9.86-24.46-12.6-31.76Zm-6,96.24-23-26.19,15-19.45.41.15a330.19,330.19,0,0,1,42.64,54.66c.28,6.93.71,14,1.31,21a131.2,131.2,0,0,1-20.35-24.3v-.19a5.4,5.4,0,0,0-5.28-5.24l-10.54-.22C72.82,163.4,72.78,163.32,72.72,163.25Zm7.15,245.56C67.17,343.89,55.53,234.52,58.09,174l20,.43c1,26.93,6.64,154.1,24.36,248.18Zm9.62-220.43a150.63,150.63,0,0,0,20.84,20.52c19.46,15.72,52.16,33.59,97.42,29.4,4.43-.41,8.68-.91,12.8-1.48a6,6,0,0,0,.61-.09c18.46-2.62,33.89-6.92,47.13-13.16a4.12,4.12,0,0,0,.67-.32,111,111,0,0,0,13.46-7.59c13-8.59,23-19.24,32.62-31.25-.43,25.5-2.15,79.3-7.78,137.86-65.91,3.13-128.92,20.32-128.92,49.7,0,.57,0,1.14.07,1.7h0c1.36,13.18,7.26,26.37,16.91,38.51a290,290,0,0,0-81.11,14.18C98,344,91.52,232.76,89.49,188.38ZM386.63,462.93c0,10.08-24.57,21.36-57.45,21.36S271.74,473,271.74,462.93a7.19,7.19,0,0,1,.87-3.28,211.72,211.72,0,0,0,113.05-.19A7.28,7.28,0,0,1,386.63,462.93Zm66.45-53.45c-26.51,28.52-75.17,46.95-124,46.95-62.06,0-110.82-27.08-130.63-58.42,14.34,8.16,35.23,14.33,59,18.39,20.23,3.72,44.37,5.6,68,5.77h7.22c23.65-.17,47.79-2.05,68-5.77,25.79-4.41,48.19-11.3,62.51-20.52A73.75,73.75,0,0,1,453.08,409.48Z"/></svg>