<svg id="Layer_1" data-name="Layer 1" xmlns="http://www.w3.org/2000/svg" viewBox="0 0 511.35 511.35"><defs><style>.cls-1{fill:#fff;}</style></defs><path class="cls-1" d="M224.79,285.81c-19.15,1-45.37,6.75-56.24,19.6-3,3.57-5.36,9.78-7,17.25l-.21.12.13.23a146,146,0,0,0-2.21,42.14c1.43,14.29,5.06,23.84,10.78,28.37,6.29,5,23.49,8,41.12,8a132.45,132.45,0,0,0,22.29-1.77c17.8-3.1,30.5-10,36.7-20,4-6.42,7.33-23.35,7.92-40.25.53-15.06-.85-34.95-10.44-44.13C257.07,285.27,234.16,285.32,224.79,285.81Zm-1.12,10.89c-4.95,7.49-11.41,19-15,32.28l-.23-.27c-5.21,4.51-11.21,6.32-17.37,5.21-6.76-1.21-13.31-5.89-18.1-12.77,1.12-4.07,2.42-7.15,3.79-8.76C183.4,304.57,202.93,298.08,223.67,296.7Zm-46.95,88.35c-1.18-.94-5.15-5.21-6.73-21a136.3,136.3,0,0,1,.45-29.36,36.93,36.93,0,0,0,18.77,9.84,29.62,29.62,0,0,0,5.37.48,30.49,30.49,0,0,0,11.72-2.37c-.14,1.76-.23,3.54-.23,5.33,0,15.22,15.52,31.81,25.7,41.06l-.2,0C208,393.18,181.54,388.86,176.72,385.05ZM261,374c-3.48,5.58-9.78,9.27-16.49,11.7-9.37-7.68-27.6-25.21-27.6-37.75,0-23,15.12-44.81,20.13-51.39,10.8.61,19.37,3,23.14,6.57C272.19,314.71,266.64,364.91,261,374Z"/><path class="cls-1" d="M332.17,157.5l0,.25c.38,0,.75-.09,1.12-.13a176.37,176.37,0,0,0,19,1c35.88,0,74-11,74-31.33S388.17,96,352.29,96s-74,11-74,31.32C278.27,143.86,303.47,154.21,332.17,157.5Zm83.34-30.18c0,7.62-20.4,18.36-53.15,20.24,13.23-8.5,22.36-21.54,25.09-36.91C405.18,114.92,415.51,121.91,415.51,127.32Zm-38.67-18.73c-3.5,20-20.74,35.24-43.74,38.18a134.34,134.34,0,0,1-15.53-2.66,41,41,0,0,0,15-13.54,33.55,33.55,0,0,0,5.25-23.17c4.57-.38,9.4-.59,14.47-.59A163.21,163.21,0,0,1,376.84,108.59Zm-49.74.1a22.76,22.76,0,0,1-3.57,16c-4.73,7.24-13.37,12.41-22.8,13.75-7.52-3.6-11.66-7.66-11.66-11.09C289.07,121,303.32,112.42,327.1,108.69Z"/><path class="cls-1" d="M475.48,114.74c-5.18-12.75-17.43-24.3-35.74-33.4-23.66-11.75-55-18.23-88.26-18.23s-64.59,6.48-88.25,18.23c-17.28,8.59-29.16,19.35-34.8,31.25-6.56,8.51-9.11,33.48-7.59,74.35-10.1-3.43-19.47-5.61-27.5-6.29-33-2.82-98.27,2.13-133.17,38.57-14.28,14.91-23.62,44.81-25.62,82-1.06,19.63.06,38.89,3,54.78-.18-.22-.27-.38-.28-.38a7.41,7.41,0,0,1,.37.87c2,10.71,4.77,19.85,8.23,26.49,13.75,26.35,55.89,52.86,83,58.09a16.25,16.25,0,0,0,3.12.29c5.81,0,11.77-2.7,15.18-4.56,14.25,6.66,38.75,10.81,63.07,10.81a188.61,188.61,0,0,0,25-1.59c17.21-2.33,38.61-8,53.94-21.24,10,.25,24.35-6.42,30.53-18,8.88-16.57,14.1-43.52,14.9-71.05,4.16.33,8.38.5,12.62.5a177.23,177.23,0,0,0,72.21-15.42c30.49-13.91,51-35.34,57.71-60.36,3.75-14,6.55-46.17,6.81-78.35C484.14,145.06,481.33,122.42,475.48,114.74Zm-124-40.83c62.89,0,116,25.15,116,54.93s-53.13,54.92-116,54.92-116-25.15-116-54.92S288.6,73.91,351.48,73.91Zm-159,117.5c19.28,1.64,48.54,13.5,74,29.71-18-4-35.39-3.6-46.67-3.33-25,.59-47.41,6.26-67.15,11.26-19.33,4.89-36,9.12-48.58,6.66C85.32,232,81.31,223.52,78.92,218.43c-.14-.31-.28-.59-.42-.88C108.43,195.55,156.63,188.36,192.43,191.41ZM117.1,342.77c-5,6.57-28.15,31.31-51.48,27.74-12-1.84-15.28-10.67-17.43-16.5l-.15-.39a233.43,233.43,0,0,1-2.81-49.73c5,5.18,13,10.15,25.72,10.33h.83c19.71,0,38.12-9.77,51.58-19.68C119.29,309.26,117.42,326.75,117.1,342.77Zm13.73,87.71c-23.73-4.58-62.51-29.09-74.92-51.56A32.67,32.67,0,0,0,64,381.19a41.12,41.12,0,0,0,6.23.47c19.13,0,36.61-13,47.06-23.1,1.15,26.73,6.74,56.89,19.48,71.06A12.65,12.65,0,0,1,130.83,430.48Zm102.85,4.85c-38.84,5.25-79.59-3.58-88.1-12.1-10.53-10.52-17.49-39.46-17.73-73.73-.23-32.08,5.77-60.62,15.05-72.45.54-.61,1-1.14,1.33-1.58l.07-.07c13.26-14,44.36-23.11,79.21-23.18h.35c30.25,0,55.63,6.93,66.29,18.11,9.85,10.33,14.8,35.39,13.59,68.76-1.09,30-6.84,56.85-11.77,65.53C280.35,425.06,253.86,432.61,233.68,435.33Zm76.4-33.61a23.73,23.73,0,0,1-9.07,8.81c.12-.19.24-.38.35-.57,6.57-11.56,12.11-41.2,13.17-70.47.77-21.31-.35-59.6-16.56-76.61-12.82-13.45-40.5-21.46-74.1-21.46h-.38c-30,.06-68.59,7.06-87,26.55a36.69,36.69,0,0,0-2.76,3.33c-7.81,8.4-34.25,32.12-61.92,32.12H71.1c-15.11-.22-20-8.65-23.25-14.23-.44-.76-.85-1.45-1.27-2.09,3.19-27.41,10.88-49.43,21.39-60.4.65-.67,1.32-1.32,2-2,3.18,6.44,10,17.27,32,21.59,14.93,2.92,32.72-1.58,53.31-6.79,19.19-4.86,40.95-10.37,64.76-10.93,20.77-.49,64-1.51,88.13,28.85,9.64,13.05,15.5,39.14,15.67,69.82C324,357,318.73,385.56,310.08,401.72ZM473,182.16c-.25,30.82-3,62.59-6.44,75.53-5.87,21.85-24.25,40.79-51.75,53.33a165.69,165.69,0,0,1-80.27,13.92c-.41-29.48-6-58.16-17.79-74a1.34,1.34,0,0,0-.11-.14h0v0C305,235.11,284.06,218.19,259.2,204.3a252.59,252.59,0,0,0-27.38-13.25c-.69-16.2-.71-29.67-.25-40.42,6.39,9.69,17.11,18.47,31.66,25.7,23.66,11.75,55,18.23,88.25,18.23s64.6-6.48,88.26-18.23c15.17-7.54,26.18-16.76,32.46-27C472.81,158.08,473.15,168.93,473,182.16Z"/></svg>